<?xml version="1.0" encoding="utf-8"?>
<!-- Generator: Adobe Illustrator 17.1.0, SVG Export Plug-In . SVG Version: 6.00 Build 0)  -->
<!DOCTYPE svg PUBLIC "-//W3C//DTD SVG 1.1//EN" "http://www.w3.org/Graphics/SVG/1.1/DTD/svg11.dtd">
<svg version="1.1" id="Layer_1" xmlns="http://www.w3.org/2000/svg" xmlns:xlink="http://www.w3.org/1999/xlink" x="0px" y="0px"
	 viewBox="0 0 592 266" enable-background="new 0 0 592 266" xml:space="preserve">
<path stroke="#000000" stroke-width="7" stroke-miterlimit="10" d="M84.266,10.243H12.449v155.844c0,0,1.436,89.772,104.135,89.772
	s104.853-63.917,104.853-63.917s28.009,32.777,53.145,31.829c25.136-0.948,30.881-8.848,35.909-21.057
	c5.027-12.209-6.464-28.727-30.163-38.063s-43.809-11.491-66.79-31.6s-22.263-66.79-12.927-86.899s25.136-35.909,25.136-35.909
	h-71.099v143.635c0,0,0,40.218-36.627,40.218s-32.318-39.499-32.318-39.499L84.266,10.243z"/>
<path stroke="#000000" stroke-width="7" stroke-miterlimit="10" d="M354.483,68.415c0,0-19.402-20.109-42.829-25.854
	c-23.427-5.745-37.16,9.319-39.42,15.817c-2.26,6.497-5.932,29.661,14.689,36.723c20.621,7.062,71.185,23.446,78.247,34.745
	c7.062,11.299,36.723,30.226,12.429,96.891c0,0,62.428,65.253,134.037,6.356v22.766h69.914V10.243h-69.49v22.429
	c0,0-28.389-27.118-72.033-24.576S363.428,47.803,354.483,68.415z"/>
<ellipse fill="#ED1C24" cx="463.757" cy="132.883" rx="51.27" ry="59.533"/>
</svg>
